<svg xmlns:svg="http://www.w3.org/2000/svg" xmlns="http://www.w3.org/2000/svg" version="1.1" x="0" y="0" width="32" height="32" viewBox="0 0 32 32" enable-background="new 0 0 32 32" xml:space="preserve"><style>.s0{fill:#444;}</style><path d="M0.1 32l2.3-8.2c-1.4-2.4-2.1-5.1-2.1-7.9C0.2 7.1 7.3 0 16.1 0c4.2 0 8.2 1.7 11.2 4.7 3 3 4.6 7 4.6 11.2 0 8.7-7.1 15.9-15.9 15.9h0 0c-2.7 0-5.3-0.7-7.6-1.9L0.1 32zM8.9 26.9l0.5 0.3c2 1.2 4.3 1.8 6.7 1.8h0c7.3 0 13.2-5.9 13.2-13.2 0-3.5-1.4-6.8-3.9-9.3s-5.8-3.9-9.3-3.9C8.8 2.7 2.9 8.6 2.9 15.9c0 2.5 0.7 4.9 2 7l0.3 0.5 -1.3 4.9L8.9 26.9zM12.1 9.2c-0.3-0.8-0.6-0.7-0.9-0.7 -0.2 0-0.5 0-0.8 0 -0.3 0-0.7 0.1-1.1 0.5C9 9.4 8 10.4 8 12.3c0 2 1.4 3.8 1.6 4.1 0.2 0.3 2.8 4.3 6.8 6 0.9 0.4 1.7 0.7 2.3 0.8 0.9 0.3 1.8 0.3 2.5 0.2 0.8-0.1 2.3-1 2.7-1.9 0.3-0.9 0.3-1.7 0.2-1.9 -0.1-0.2-0.4-0.3-0.8-0.5C22.9 19 21 18 20.6 17.9c-0.4-0.1-0.6-0.2-0.9 0.2 -0.3 0.4-1 1.3-1.3 1.6 -0.2 0.3-0.5 0.3-0.9 0.1 -0.4-0.2-1.7-0.6-3.2-2 -1.2-1.1-2-2.3-2.2-2.7 -0.2-0.4 0-0.6 0.2-0.8 0.2-0.2 0.4-0.5 0.6-0.7 0.2-0.2 0.3-0.4 0.4-0.7 0.1-0.3 0.1-0.5 0-0.7C13.2 12 12.4 10 12.1 9.2z" fill="#444"/></svg>